<svg xmlns="http://www.w3.org/2000/svg" width="40.667" height="40.667" viewBox="0 0 40.667 40.667">
  <path id="Icon_material-camera" data-name="Icon material-camera" d="M16.713,18.95l9.7-16.8A20.955,20.955,0,0,0,22,1.667,20.3,20.3,0,0,0,9.149,6.242l7.442,12.912.122-.2ZM41.4,15.9A20.384,20.384,0,0,0,29.2,3.009L21.756,15.9Zm.529,2.033H26.7l.59,1.017,9.679,16.775A20.152,20.152,0,0,0,42.333,22,20.585,20.585,0,0,0,41.927,17.933ZM14.965,22,7.035,8.275A20.247,20.247,0,0,0,1.667,22a20.585,20.585,0,0,0,.407,4.067H17.3L14.965,22ZM2.6,28.1A20.384,20.384,0,0,0,14.8,40.991L22.244,28.1H2.6Zm22.916,0-7.93,13.745A20.955,20.955,0,0,0,22,42.333a20.3,20.3,0,0,0,12.851-4.575L27.409,24.847,25.518,28.1Z" transform="translate(-1.667 -1.667)" fill="#bd4f6c"/>
</svg>
